<svg xmlns="http://www.w3.org/2000/svg" xmlns:xlink="http://www.w3.org/1999/xlink" viewBox="0 0 2810.82 2800"><defs><style>.cls-1{fill:url(#linear-gradient);}.cls-2{fill:#bdd0fb;}.cls-13,.cls-3,.cls-7{fill:#fff;}.cls-3{opacity:0.5;}.cls-4{fill:#7d97f4;}.cls-5{fill:#91b3fa;}.cls-6{opacity:0.89;}.cls-7{opacity:0.67;}.cls-8{fill:url(#linear-gradient-2);}.cls-9{fill:url(#linear-gradient-3);}.cls-10{fill:url(#linear-gradient-4);}.cls-11{fill:url(#linear-gradient-5);}.cls-12{fill:url(#linear-gradient-6);}.cls-14{fill:url(#linear-gradient-7);}.cls-15{fill:url(#linear-gradient-8);}.cls-16{fill:url(#linear-gradient-9);}.cls-17{fill:url(#linear-gradient-10);}.cls-18{fill:url(#linear-gradient-11);}.cls-19{fill:url(#linear-gradient-12);}.cls-20{fill:url(#linear-gradient-13);}.cls-21{fill:url(#linear-gradient-14);}.cls-22{fill:url(#linear-gradient-15);}.cls-23{fill:url(#linear-gradient-16);}.cls-24{fill:url(#linear-gradient-17);}.cls-25{fill:url(#linear-gradient-18);}.cls-26{fill:url(#linear-gradient-19);}.cls-27{fill:url(#linear-gradient-20);}.cls-28{fill:url(#linear-gradient-21);}.cls-29{fill:url(#linear-gradient-22);}.cls-30{fill:url(#linear-gradient-23);}.cls-31{fill:url(#linear-gradient-24);}.cls-32{fill:url(#linear-gradient-25);}.cls-33{fill:url(#linear-gradient-26);}.cls-34{fill:url(#linear-gradient-27);}.cls-35{fill:url(#linear-gradient-28);}.cls-36{fill:url(#linear-gradient-29);}.cls-37{fill:url(#linear-gradient-30);}.cls-38{fill:url(#linear-gradient-31);}.cls-39{fill:url(#linear-gradient-32);}.cls-40{fill:url(#linear-gradient-33);}.cls-41{fill:url(#linear-gradient-34);}.cls-42{fill:url(#linear-gradient-35);}.cls-43{fill:url(#linear-gradient-36);}.cls-44{fill:url(#linear-gradient-37);}.cls-45{fill:url(#linear-gradient-38);}.cls-46{fill:url(#linear-gradient-39);}.cls-47{fill:url(#linear-gradient-40);}.cls-48{fill:url(#linear-gradient-41);}.cls-49{fill:url(#linear-gradient-42);}.cls-50{fill:url(#linear-gradient-43);}.cls-51{fill:url(#linear-gradient-44);}.cls-52{fill:url(#linear-gradient-45);}.cls-53,.cls-54,.cls-55,.cls-56,.cls-57,.cls-58,.cls-59,.cls-60,.cls-61,.cls-62,.cls-63,.cls-64,.cls-65,.cls-66,.cls-67,.cls-68{fill-rule:evenodd;}.cls-53{fill:url(#linear-gradient-46);}.cls-54{fill:url(#linear-gradient-47);}.cls-55{fill:url(#linear-gradient-48);}.cls-56{fill:url(#linear-gradient-49);}.cls-57{fill:url(#linear-gradient-50);}.cls-58{fill:url(#linear-gradient-51);}.cls-59{fill:url(#linear-gradient-52);}.cls-60{fill:url(#linear-gradient-53);}.cls-61{fill:url(#linear-gradient-54);}.cls-62{fill:url(#linear-gradient-55);}.cls-63{fill:url(#linear-gradient-56);}.cls-64{fill:url(#linear-gradient-57);}.cls-65{fill:url(#linear-gradient-58);}.cls-66{fill:url(#linear-gradient-59);}.cls-67{fill:url(#linear-gradient-60);}.cls-68{fill:url(#linear-gradient-61);}.cls-69{fill:url(#linear-gradient-62);}.cls-70{fill:url(#linear-gradient-63);}.cls-71{fill:url(#linear-gradient-64);}.cls-72{fill:url(#linear-gradient-65);}.cls-73{fill:url(#linear-gradient-66);}.cls-74{fill:url(#linear-gradient-67);}.cls-75{fill:url(#linear-gradient-68);}.cls-76{fill:url(#linear-gradient-69);}.cls-77{fill:url(#linear-gradient-70);}.cls-78{fill:url(#linear-gradient-71);}.cls-79{fill:url(#linear-gradient-72);}.cls-80{fill:url(#linear-gradient-73);}.cls-81{fill:url(#linear-gradient-74);}.cls-82{fill:url(#linear-gradient-75);}.cls-83{fill:url(#linear-gradient-76);}</style><linearGradient id="linear-gradient" x1="3407.72" y1="3609.3" x2="1354.44" y2="1393.06" gradientUnits="userSpaceOnUse"><stop offset="0" stop-color="#dae3fe"/><stop offset="1" stop-color="#e9effd"/></linearGradient><linearGradient id="linear-gradient-2" x1="3661.71" y1="-197.92" x2="3298.51" y2="635.29" gradientUnits="userSpaceOnUse"><stop offset="0" stop-color="#4f52ff"/><stop offset="1" stop-color="#4042e2"/></linearGradient><linearGradient id="linear-gradient-3" x1="2785.67" y1="1385.96" x2="2952.62" y2="434.86" xlink:href="#linear-gradient-2"/><linearGradient id="linear-gradient-4" x1="1837.02" y1="-40.09" x2="1132" y2="1327.23" xlink:href="#linear-gradient-2"/><linearGradient id="linear-gradient-5" x1="1020.02" y1="1076.03" x2="1186.97" y2="124.93" xlink:href="#linear-gradient-2"/><linearGradient id="linear-gradient-6" x1="1265.55" y1="2081.29" x2="1547.4" y2="2081.29" xlink:href="#linear-gradient-2"/><linearGradient id="linear-gradient-7" x1="2255.17" y1="-1102.23" x2="2036.95" y2="-485.19" xlink:href="#linear-gradient-2"/><linearGradient id="linear-gradient-8" x1="2069.77" y1="-565.89" x2="1941.58" y2="523.7" xlink:href="#linear-gradient-2"/><linearGradient id="linear-gradient-9" x1="-5825.33" y1="3192.47" x2="-5710.66" y2="3192.47" gradientTransform="matrix(-1, 0, 0, 1, -3077.96, 0)" gradientUnits="userSpaceOnUse"><stop offset="0" stop-color="#09005d"/><stop offset="1" stop-color="#1a0f91"/></linearGradient><linearGradient id="linear-gradient-10" x1="-5793.44" y1="3061.93" x2="-5815.34" y2="3253.09" gradientTransform="matrix(-1, 0, 0, 1, -3077.96, 0)" gradientUnits="userSpaceOnUse"><stop offset="0" stop-color="#a22b25"/><stop offset="1" stop-color="#c0423c"/></linearGradient><linearGradient id="linear-gradient-11" x1="-5650.72" y1="3195.39" x2="-5485.66" y2="3195.39" xlink:href="#linear-gradient-9"/><linearGradient id="linear-gradient-12" x1="-5500.42" y1="2675.73" x2="-5522.32" y2="2866.89" gradientTransform="matrix(-1, -0.06, -0.06, 1, -2781.07, 65.77)" xlink:href="#linear-gradient-10"/><linearGradient id="linear-gradient-13" x1="3066.7" y1="3242.27" x2="3293.41" y2="2161.21" gradientTransform="translate(-496.4)" xlink:href="#linear-gradient-9"/><linearGradient id="linear-gradient-14" x1="11551.87" y1="-10253.28" x2="11045.97" y2="-9833.38" gradientTransform="matrix(-1, 0, 0, 1, -657.37, 0)" gradientUnits="userSpaceOnUse"><stop offset="0" stop-color="#ff928e"/><stop offset="1" stop-color="#fe7062"/></linearGradient><linearGradient id="linear-gradient-15" x1="2679.01" y1="2066.57" x2="2587.94" y2="2525.28" gradientUnits="userSpaceOnUse"><stop offset="0" stop-color="#febbba"/><stop offset="1" stop-color="#ff928e"/></linearGradient><linearGradient id="linear-gradient-16" x1="2564.03" y1="1948.54" x2="2624.74" y2="1640.48" gradientTransform="matrix(1, 0, 0, 1, 0, 0)" xlink:href="#linear-gradient-10"/><linearGradient id="linear-gradient-17" x1="-1525.87" y1="-4439.8" x2="-1728.24" y2="-3704.52" xlink:href="#linear-gradient-14"/><linearGradient id="linear-gradient-18" x1="-1499.66" y1="-4432.59" x2="-1702.03" y2="-3697.3" xlink:href="#linear-gradient-14"/><linearGradient id="linear-gradient-19" x1="-1384.28" y1="-9060.65" x2="-1474.22" y2="-8831.3" xlink:href="#linear-gradient-10"/><linearGradient id="linear-gradient-20" x1="-5698.04" y1="1659.98" x2="-5559.11" y2="1838.84" xlink:href="#linear-gradient-9"/><linearGradient id="linear-gradient-21" x1="-1427.07" y1="-9077.43" x2="-1517.01" y2="-8848.07" xlink:href="#linear-gradient-10"/><linearGradient id="linear-gradient-22" x1="2676.93" y1="1801.57" x2="2992.76" y2="2074.39" gradientTransform="translate(-496.4)" xlink:href="#linear-gradient-10"/><linearGradient id="linear-gradient-23" x1="2365.04" y1="1886.73" x2="2289.15" y2="2498.88" gradientTransform="matrix(1, 0, 0, 1, 0, 0)" xlink:href="#linear-gradient-10"/><linearGradient id="linear-gradient-24" x1="2665.24" y1="1815.11" x2="2981.06" y2="2087.92" gradientTransform="translate(-496.4)" xlink:href="#linear-gradient-10"/><linearGradient id="linear-gradient-25" x1="-157.34" y1="2595.24" x2="-765.62" y2="3871.29" gradientTransform="translate(711.27 -1142.49) rotate(-34.57)" gradientUnits="userSpaceOnUse"><stop offset="0" stop-color="#e1473d"/><stop offset="1" stop-color="#e9605a"/></linearGradient><linearGradient id="linear-gradient-26" x1="4573.44" y1="1447.36" x2="4239.89" y2="2111.01" gradientTransform="matrix(-0.66, 0.75, 0.75, 0.66, 3520.53, -2347.59)" xlink:href="#linear-gradient-14"/><linearGradient id="linear-gradient-27" x1="-578.27" y1="2958.82" x2="-85.74" y2="4114.01" gradientTransform="translate(711.27 -1142.49) rotate(-34.57)" gradientUnits="userSpaceOnUse"><stop offset="0" stop-color="#ff9085"/><stop offset="1" stop-color="#fb6fbb"/></linearGradient><linearGradient id="linear-gradient-28" x1="-657.86" y1="3116.66" x2="-452.35" y2="3870.22" gradientTransform="translate(711.27 -1142.49) rotate(-34.57)" xlink:href="#linear-gradient-15"/><linearGradient id="linear-gradient-29" x1="2194.84" y1="1479.73" x2="1938.51" y2="3132.43" gradientTransform="matrix(1, 0, 0, 1, 0, 0)" xlink:href="#linear-gradient-14"/><linearGradient id="linear-gradient-30" x1="3046.9" y1="1547.91" x2="2743.36" y2="1785.69" gradientTransform="matrix(1, 0, 0, 1, 0, 0)" xlink:href="#linear-gradient-10"/><linearGradient id="linear-gradient-31" x1="2798.37" y1="1764.73" x2="3451.35" y2="2478.8" gradientTransform="matrix(1, 0, 0, 1, 0, 0)" xlink:href="#linear-gradient-9"/><linearGradient id="linear-gradient-32" x1="3771.8" y1="1425.77" x2="3265.9" y2="1845.67" gradientTransform="matrix(1, 0, 0, 1, 0, 0)" xlink:href="#linear-gradient-14"/><linearGradient id="linear-gradient-33" x1="-6640.73" y1="3203.88" x2="-6623.75" y2="3083.32" gradientTransform="translate(10111.16 665.13) rotate(15.3)" xlink:href="#linear-gradient-15"/><linearGradient id="linear-gradient-34" x1="-6718.58" y1="2945.56" x2="-6559.81" y2="3128.1" gradientTransform="translate(10111.16 665.13) rotate(15.3)" xlink:href="#linear-gradient-15"/><linearGradient id="linear-gradient-35" x1="2898.94" y1="1698.3" x2="3604.95" y2="2470.36" gradientTransform="matrix(1, 0, 0, 1, 0, 0)" xlink:href="#linear-gradient-9"/><linearGradient id="linear-gradient-36" x1="-6678.91" y1="2911.05" x2="-6520.14" y2="3093.59" gradientTransform="translate(10111.16 665.13) rotate(15.3)" xlink:href="#linear-gradient-15"/><linearGradient id="linear-gradient-37" x1="6064.5" y1="3402.37" x2="6443.3" y2="2733.71" gradientTransform="matrix(-1, 0.01, 0.01, 1, 9204.79, -61.45)" xlink:href="#linear-gradient-15"/><linearGradient id="linear-gradient-38" x1="6147.07" y1="3165.96" x2="6257.8" y2="3165.96" gradientTransform="matrix(-1, 0.01, 0.01, 1, 9204.79, -61.45)" xlink:href="#linear-gradient-9"/><linearGradient id="linear-gradient-39" x1="6493.77" y1="2907.71" x2="5927.25" y2="3088.86" gradientTransform="matrix(-1, 0.01, 0.01, 1, 9204.79, -61.45)" xlink:href="#linear-gradient-15"/><linearGradient id="linear-gradient-40" x1="6249.73" y1="3185.96" x2="6381.72" y2="3185.96" gradientTransform="matrix(-1, 0.01, 0.01, 1, 9204.79, -61.45)" xlink:href="#linear-gradient-9"/><linearGradient id="linear-gradient-41" x1="2888.82" y1="2569.79" x2="3076" y2="2261.19" gradientTransform="matrix(1, 0, 0, 1, 0, 0)" xlink:href="#linear-gradient-25"/><linearGradient id="linear-gradient-42" x1="6132.76" y1="2432.34" x2="6761.12" y2="1713.59" gradientTransform="matrix(-0.99, -0.11, -0.11, 0.99, 9471.26, 593.16)" xlink:href="#linear-gradient-15"/><linearGradient id="linear-gradient-43" x1="4326.84" y1="3678.82" x2="4420.81" y2="3892.62" gradientTransform="translate(-2725.8 -113.52) rotate(-12.16)" xlink:href="#linear-gradient-15"/><linearGradient id="linear-gradient-44" x1="4329.31" y1="3695.03" x2="4431.62" y2="3927.81" gradientTransform="translate(-2725.8 -113.52) rotate(-12.16)" xlink:href="#linear-gradient-15"/><linearGradient id="linear-gradient-45" x1="2215.83" y1="2511.78" x2="2243.74" y2="2511.78" gradientTransform="matrix(1, 0, 0, 1, 0, 0)" xlink:href="#linear-gradient-14"/><linearGradient id="linear-gradient-46" x1="-5943.59" y1="2381.4" x2="-6051.23" y2="2476.38" gradientTransform="matrix(-1, 0, 0, 1, -3640.82, 0)" xlink:href="#linear-gradient-9"/><linearGradient id="linear-gradient-47" x1="-6891.88" y1="1240.78" x2="-6804.51" y2="1240.78" gradientTransform="matrix(-0.98, -0.18, -0.18, 0.98, -3947.62, 46.6)" xlink:href="#linear-gradient-9"/><linearGradient id="linear-gradient-48" x1="-2203.67" y1="-1869.96" x2="-2675.49" y2="-1540.73" gradientTransform="matrix(-0.98, -0.18, -0.18, 0.98, -3947.62, 46.6)" xlink:href="#linear-gradient-9"/><linearGradient id="linear-gradient-49" x1="-6038.76" y1="3198.19" x2="-5955.09" y2="3198.19" gradientTransform="matrix(-1, 0, 0, 1, -3640.82, 0)" xlink:href="#linear-gradient-25"/><linearGradient id="linear-gradient-50" x1="-6144.67" y1="3225.32" x2="-6098.13" y2="3225.32" gradientTransform="matrix(-1, 0, 0, 1, -3640.82, 0)" xlink:href="#linear-gradient-25"/><linearGradient id="linear-gradient-51" x1="-6091.18" y1="2697.14" x2="-6084.45" y2="2628.71" gradientTransform="matrix(-1, 0, 0, 1, -3640.82, 0)" xlink:href="#linear-gradient-15"/><linearGradient id="linear-gradient-52" x1="-5789.68" y1="1991.16" x2="-5507.83" y2="1127.99" gradientTransform="matrix(-1, 0, 0, 1, -3640.82, 0)" xlink:href="#linear-gradient-15"/><linearGradient id="linear-gradient-53" x1="-5705.39" y1="2018.68" x2="-5423.54" y2="1155.51" gradientTransform="matrix(-1, 0, 0, 1, -3640.82, 0)" xlink:href="#linear-gradient-15"/><linearGradient id="linear-gradient-54" x1="-6350.61" y1="2974.06" x2="-6124.68" y2="2663.64" gradientTransform="matrix(-1, 0, 0, 1, -3640.82, 0)" xlink:href="#linear-gradient-15"/><linearGradient id="linear-gradient-55" x1="3849.9" y1="1519.87" x2="3344" y2="1939.77" gradientTransform="matrix(1, 0, 0, 1, 0, 0)" xlink:href="#linear-gradient-14"/><linearGradient id="linear-gradient-56" x1="3954" y1="1645.28" x2="3448.09" y2="2065.18" gradientTransform="matrix(1, 0, 0, 1, 0, 0)" xlink:href="#linear-gradient-14"/><linearGradient id="linear-gradient-57" x1="3873.52" y1="1548.33" x2="3367.62" y2="1968.24" gradientTransform="matrix(1, 0, 0, 1, 0, 0)" xlink:href="#linear-gradient-25"/><linearGradient id="linear-gradient-58" x1="-6730.58" y1="1265.81" x2="-6721.61" y2="1132.48" gradientTransform="matrix(-0.99, -0.17, -0.19, 1.03, -3969.54, 130.45)" xlink:href="#linear-gradient-15"/><linearGradient id="linear-gradient-59" x1="-6655.84" y1="1387.07" x2="-6646.87" y2="1253.58" gradientTransform="matrix(-0.98, -0.18, -0.18, 0.98, -3947.62, 46.6)" xlink:href="#linear-gradient-15"/><linearGradient id="linear-gradient-60" x1="-6781.77" y1="1378.61" x2="-6772.8" y2="1245.11" gradientTransform="matrix(-0.98, -0.18, -0.18, 0.98, -3947.62, 46.6)" xlink:href="#linear-gradient-15"/><linearGradient id="linear-gradient-61" x1="-2212.54" y1="-1882.66" x2="-2684.35" y2="-1553.43" gradientTransform="matrix(-0.98, -0.18, -0.18, 0.98, -3947.62, 46.6)" xlink:href="#linear-gradient-9"/><linearGradient id="linear-gradient-62" x1="1597.61" y1="4333.17" x2="1637.76" y2="3559.34" gradientTransform="matrix(-1, 0, 0, 1, 2861.66, 0)" xlink:href="#linear-gradient-9"/><linearGradient id="linear-gradient-63" x1="3036.95" y1="3069.41" x2="3015.63" y2="3255.51" gradientTransform="translate(-1811.84)" xlink:href="#linear-gradient-15"/><linearGradient id="linear-gradient-64" x1="3286.68" y1="3563.44" x2="3326.83" y2="2789.62" gradientTransform="translate(-1811.84)" xlink:href="#linear-gradient-9"/><linearGradient id="linear-gradient-65" x1="3261.59" y1="3093.22" x2="3241.64" y2="3267.31" gradientTransform="translate(-1811.84)" xlink:href="#linear-gradient-15"/><linearGradient id="linear-gradient-66" x1="1665.27" y1="1854.18" x2="1216.26" y2="3168.35" gradientTransform="matrix(1, 0, 0, 1, 0, 0)" xlink:href="#linear-gradient-25"/><linearGradient id="linear-gradient-67" x1="1373.36" y1="2157.7" x2="860.53" y2="2408.25" gradientTransform="matrix(1, 0, 0, 1, 0, 0)" xlink:href="#linear-gradient-9"/><linearGradient id="linear-gradient-68" x1="1240.31" y1="1889.65" x2="1335.94" y2="1889.65" xlink:href="#linear-gradient-15"/><linearGradient id="linear-gradient-69" x1="11172.88" y1="-1363.91" x2="11340.4" y2="-1404.68" gradientTransform="matrix(0.88, -0.48, 0.48, 0.88, 133.67, 1095.14)" xlink:href="#linear-gradient-15"/><linearGradient id="linear-gradient-70" x1="618.76" y1="1126.54" x2="791.31" y2="1126.54" gradientTransform="matrix(0.88, -0.48, 0.48, 0.88, 133.67, 1095.14)" xlink:href="#linear-gradient-9"/><linearGradient id="linear-gradient-71" x1="11166.99" y1="-1388.18" x2="11334.51" y2="-1428.95" gradientTransform="matrix(0.88, -0.48, 0.48, 0.88, 133.67, 1095.14)" xlink:href="#linear-gradient-15"/><linearGradient id="linear-gradient-72" x1="1345.28" y1="2100.23" x2="832.45" y2="2350.78" gradientTransform="matrix(1, 0, 0, 1, 0, 0)" xlink:href="#linear-gradient-9"/><linearGradient id="linear-gradient-73" x1="1263.59" y1="2377.61" x2="1093.42" y2="2522.96" xlink:href="#linear-gradient-15"/><linearGradient id="linear-gradient-74" x1="1370.58" y1="2152.01" x2="857.74" y2="2402.56" gradientTransform="matrix(1, 0, 0, 1, 0, 0)" xlink:href="#linear-gradient-9"/><linearGradient id="linear-gradient-75" x1="1641.23" y1="2138.53" x2="2005.5" y2="2013.74" xlink:href="#linear-gradient-15"/><linearGradient id="linear-gradient-76" x1="1640.74" y1="2137.09" x2="2005.01" y2="2012.29" xlink:href="#linear-gradient-15"/></defs><g id="Illustration"><path class="cls-1" d="M3124.84,2345.16c-282.87,658-1029.57,940.58-1614.61,892.39-159.75-13.15-481.15-39.63-732.1-275.79-481.95-453.54-407.72-1401.56,53.63-1959.7,59.42-71.87,470.67-553.44,1111.52-547,469.2,4.72,798.52,268.48,838.57,301.34C2832.44,797.9,2944,896.54,3044.57,1053,3280.84,1420.71,3301.61,1934,3124.84,2345.16Z" transform="translate(-449.59 -455)"/><path class="cls-2" d="M459.3,2547.11C729.87,3434,2865.55,3505.62,3250.9,2659.43c26.41-58-20.24-121.73-90-123L511.28,2487.5C476.15,2486.85,450,2516.7,459.3,2547.11Z" transform="translate(-449.59 -455)"/><path class="cls-2" d="M2304,2535.78s95.07-1269.12,608.09-2031.23c34.49-51.23,114.51-45.6,141,10.1C3230.05,887.11,3643,2035.61,2304,2535.78Z" transform="translate(-449.59 -455)"/><path class="cls-3" d="M2417.72,2437.68c-2.62,3.39,2.29,7.39,5.36,4.37,113.24-111.37,534.76-638.19,566.34-1565.81.1-3-4.51-3.41-4.88-.45C2957.31,1093.82,2831.87,1901.58,2417.72,2437.68Z" transform="translate(-449.59 -455)"/><path class="cls-2" d="M866,1251.73c23.07-48,39.57-98.35,43.42-153.12,9.69-138-70.53-265.08-129.46-383.9-54.17-109.2-94.43-271.92,88.34-257.44,145.61,11.54,316.79,156.65,336.32,308,23.11,179.08-64.07,404.92,39.3,567.59,144.6,227.58,248.9,175.42,248.9,559.46,0,164.09-90.89,254.61-195,304.46a435.67,435.67,0,0,1-491.18-79.81C690.94,2005,622.16,1844.09,645.42,1682.53,668.92,1519.37,796.89,1395.64,866,1251.73Z" transform="translate(-449.59 -455)"/><path class="cls-4" d="M988.13,2486.45a5.1,5.1,0,0,0,4.94-3.86c90.59-361.57,139.89-689.33,146.56-974.17,5.33-228.09-16.51-429.38-64.92-598.28C992,621.67,862.33,529,856.85,525.22a5.1,5.1,0,0,0-5.82,8.37c1.32.92,132.73,95.1,214.27,380.71,75.36,264,122.29,749.91-82.11,1565.81a5.08,5.08,0,0,0,3.7,6.18A4.85,4.85,0,0,0,988.13,2486.45Z" transform="translate(-449.59 -455)"/><path class="cls-2" d="M720.88,846.88a60.9,60.9,0,0,1,23-1.56c45.55,5.24,64.25,53.27,77.64,90.83,11.46,32.16,25,71.2,18.19,106.05-7.31,37.67-47.32,68.4-76.35,30.15-33-43.48-82.51-110.23-82.81-167.84C680.41,875.87,696.49,853.49,720.88,846.88Z" transform="translate(-449.59 -455)"/><path class="cls-5" d="M466,2126c-20-131.92,27.92-283.38,51.85-422.89,12.66-73.76,18.51-147,6.66-221.27C512.74,1408,478,1328.09,510,1254.48c64.5-148.3,217.82-80.81,305.65,30.83,101.92,129.55,129.79,341.25,168.5,504.27,23.33,98.28,58.49,199.08,70.8,299.22,20.39,165.9-17.12,281.08-96.48,358.86a240.18,240.18,0,0,1-285.16,38.22C589.23,2439,498.32,2338.86,466,2126Z" transform="translate(-449.59 -455)"/><path class="cls-4" d="M816.78,2738.12a4.76,4.76,0,0,1-.84-.07,5.06,5.06,0,0,1-4.15-5.83c.33-2,33.55-202.49,34.4-479.33.79-255.35-26.57-629.72-161.42-963.14a5.06,5.06,0,1,1,9.38-3.79c135.49,335,163,710.85,162.16,967.16-.87,277.62-34.21,478.79-34.54,480.78A5.06,5.06,0,0,1,816.78,2738.12Z" transform="translate(-449.59 -455)"/><path class="cls-4" d="M2094.5,1374.21h537.58a0,0,0,0,1,0,0v1016.3a20.46,20.46,0,0,1-20.46,20.46H2094.5a0,0,0,0,1,0,0V1374.21A0,0,0,0,1,2094.5,1374.21Z"/><g class="cls-6"><rect class="cls-7" x="2211.29" y="1655.81" width="307.19" height="473.58" rx="1.12"/><rect class="cls-4" x="2376.82" y="1681.4" width="119.27" height="422.39" rx="0.62"/><rect class="cls-4" x="2233.69" y="1681.4" width="119.27" height="422.39" rx="0.62"/></g><path class="cls-8" d="M3182.88,1911.08H2518.56l-27.1-478.2,549.19-10.42,168.4,447.63A28.85,28.85,0,0,1,3182.88,1911.08Z" transform="translate(-449.59 -455)"/><path class="cls-9" d="M3042.9,1444.45l-527.89-5.9,3.31-53.44,493.4,3.76c19.05,1.18,33.59,16.65,32.48,34.54Z" transform="translate(-449.59 -455)"/><path class="cls-4" d="M656.71,1825.62H1172a22.31,22.31,0,0,1,22.31,22.31V2862.38a0,0,0,0,1,0,0H656.71a0,0,0,0,1,0,0V1825.62A0,0,0,0,1,656.71,1825.62Z" transform="translate(1401.42 4233) rotate(180)"/><g class="cls-6"><rect class="cls-7" x="770.31" y="2107.21" width="307.19" height="473.58" rx="1.12" transform="translate(1398.22 4233) rotate(180)"/><rect class="cls-4" x="792.71" y="2132.81" width="119.27" height="422.39" rx="0.62" transform="translate(1255.1 4233) rotate(180)"/><rect class="cls-4" x="935.83" y="2132.81" width="119.27" height="422.39" rx="0.62" transform="translate(1541.34 4233) rotate(180)"/></g><path class="cls-10" d="M555.5,1907.48h664.32l27.1-478.2-549.18-10.42L529.33,1866.49A28.85,28.85,0,0,0,555.5,1907.48Z" transform="translate(-449.59 -455)"/><path class="cls-11" d="M695.48,1440.85l527.9-5.9-3.32-53.44-493.4,3.76c-19,1.18-33.59,16.65-32.48,34.54Z" transform="translate(-449.59 -455)"/><path class="cls-5" d="M1120,1762.86v1061a84.32,84.32,0,0,0,84.32,84.32H2586.76a27,27,0,0,0,27-27V1762.86Z" transform="translate(-449.59 -455)"/><path class="cls-4" d="M1257.61,1783.94h297.72a3.56,3.56,0,0,1,3.56,3.56v591.13a0,0,0,0,1,0,0H1254.05a0,0,0,0,1,0,0V1787.5A3.56,3.56,0,0,1,1257.61,1783.94Z"/><path class="cls-12" d="M1269.11,1806.37h274.73a3.56,3.56,0,0,1,3.56,3.56v546.28a0,0,0,0,1,0,0H1265.55a0,0,0,0,1,0,0V1809.93A3.56,3.56,0,0,1,1269.11,1806.37Z"/><path class="cls-2" d="M1987,2198.92H1725.17a21.53,21.53,0,0,1-21.53-21.53v-18.8a21.53,21.53,0,0,1,20-21.47l261.79-18.19a21.53,21.53,0,0,1,23,21.48v37A21.52,21.52,0,0,1,1987,2198.92Z" transform="translate(-449.59 -455)"/><path class="cls-2" d="M2006.43,2870.47H1709.29a24.43,24.43,0,0,1-24.43-24.43V2824.7c0-12.84,9.77-48.34,22.58-49.23l297.3,4.21a24.44,24.44,0,0,1,26.12,24.38v42A24.43,24.43,0,0,1,2006.43,2870.47Z" transform="translate(-449.59 -455)"/><path class="cls-4" d="M2007.22,2916.94H1710.08a24.43,24.43,0,0,1-24.43-24.43v-21.34c0-12.84,2.81-36.65,15.61-37.54l304.27-7.48a24.43,24.43,0,0,1,26.12,24.38v42A24.43,24.43,0,0,1,2007.22,2916.94Z" transform="translate(-449.59 -455)"/><rect class="cls-13" x="1653.02" y="1628" width="434.92" height="696.04" rx="3.14"/><rect class="cls-4" x="1677.12" y="1657.21" width="385.83" height="641.13" rx="2.93"/><rect class="cls-13" x="1851.04" y="1648.4" width="22.12" height="675.65"/><rect class="cls-13" x="744.71" y="1628" width="434.92" height="696.04" rx="3.14"/><rect class="cls-4" x="768.8" y="1657.21" width="385.83" height="641.13" rx="2.93"/><rect class="cls-13" x="942.72" y="1648.4" width="22.12" height="675.65"/><polygon class="cls-5" points="2181.6 667.27 2168.91 657.68 2168.91 644.33 2151.25 644.33 1417.27 89.58 675.17 644.33 675.17 1307.86 2168.91 1307.86 2168.91 735.69 2181.6 667.27"/><rect class="cls-4" x="1744.94" y="154.11" width="123.55" height="201.17"/><path class="cls-14" d="M1715.6,124.93h184.33a9.28,9.28,0,0,1,9.28,9.28v52.5a0,0,0,0,1,0,0h-199.7a0,0,0,0,1,0,0V131A6.1,6.1,0,0,1,1715.6,124.93Z"/><path class="cls-15" d="M1074.82,1205l792.66-607.89,752.41,583.62c27.35,21.22,67.47,6.36,74.4-27.55l10.55-51.62L1867.48,463.66,1057,1082.75a40.37,40.37,0,0,0-12.84,47.42Z" transform="translate(-449.59 -455)"/><g class="cls-6"><rect class="cls-13" x="1707.44" y="1190.95" width="307.19" height="473.58" rx="1.12" transform="translate(3272.48 2400.49) rotate(180)"/><rect class="cls-4" x="1280.25" y="761.55" width="119.27" height="422.39" rx="0.62"/><rect class="cls-4" x="1423.37" y="761.55" width="119.27" height="422.39" rx="0.62"/></g><g class="cls-6"><rect class="cls-13" x="1276.34" y="1194.3" width="307.19" height="473.58" rx="1.12" transform="translate(2410.27 2407.19) rotate(180)"/><rect class="cls-4" x="849.14" y="764.9" width="119.27" height="422.39" rx="0.62"/><rect class="cls-4" x="992.27" y="764.9" width="119.27" height="422.39" rx="0.62"/></g><g class="cls-6"><rect class="cls-13" x="2119.86" y="1198.58" width="307.19" height="473.58" rx="1.12" transform="translate(4097.31 2415.75) rotate(180)"/><rect class="cls-4" x="1692.67" y="769.18" width="119.27" height="422.39" rx="0.62"/><rect class="cls-4" x="1835.79" y="769.18" width="119.27" height="422.39" rx="0.62"/></g><rect class="cls-4" x="627.91" y="1294.24" width="1578.73" height="85.55" rx="7.91"/><path class="cls-16" d="M2632.7,3233.3a10,10,0,0,1,.26-2.59c12.92-51.2,77-83.09,77-83.09l25.4,2c14.6,45.13,12.73,72.81,10.38,85.13-.06.35-.17.68-.26,1C2724.55,3237.63,2681.42,3238.85,2632.7,3233.3Z" transform="translate(-449.59 -455)"/><path class="cls-4" d="M2745.5,3235.75a11,11,0,0,1-8.06,8.14c-29.81,6.27-77.18,1.23-97.07-1.37-4.39-.58-7.6-4.64-7.67-9.22C2681.42,3238.85,2724.55,3237.63,2745.5,3235.75Z" transform="translate(-449.59 -455)"/><path class="cls-17" d="M2745.59,3111.78l-10.76,51.79a8.45,8.45,0,0,1-7.23,7,71.51,71.51,0,0,1-16.67-.26c-5.55-.82-9.41-6.46-8.43-12.51l7.48-46Z" transform="translate(-449.59 -455)"/><path class="cls-4" d="M2522.69,3235.1c28.06-.79,42.57-4.09,50.07-7.16,0,2.79,0,5.63-.09,8.57a5.54,5.54,0,0,1-5.29,5.63l-154-1c-4.91,0-7.79-5.73-5.66-10.24C2427.89,3232.58,2479.33,3236.31,2522.69,3235.1Z" transform="translate(-449.59 -455)"/><path class="cls-18" d="M2407.69,3230.91a8,8,0,0,1,.61-1.16c13.61-19,48.25-56.86,116.71-73.27l32.85-1s14.62,25.42,14.9,72.5c-7.5,3.07-22,6.37-50.07,7.16C2479.33,3236.31,2427.89,3232.58,2407.69,3230.91Z" transform="translate(-449.59 -455)"/><path class="cls-19" d="M2565.41,3107.19c-.52,2.42-7.35,39.28-10,53.56a7.15,7.15,0,0,1-6.42,6.07c-5.63.31-14.7.35-22.49-1.77-4.21-1.14-7-5.43-6.74-10.19l3.68-58.29Z" transform="translate(-449.59 -455)"/><path class="cls-20" d="M2590.3,2426.79s-45.18,310.45-77.79,679.87c-.6,6.88,4.88,12.87,11.64,14.29,10,2.1,24.6,4.59,36.72,4.25a13.61,13.61,0,0,0,13-11.36c11.1-65.13,90.36-414.71,111.16-491.65,0,0,23.89,326.82,16.26,496.37a8,8,0,0,0,7.09,8.36,135.63,135.63,0,0,0,29.48-.08,10.76,10.76,0,0,0,9.58-9.13c7.91-55.13,53.45-383.26,51.51-619.63-.11-13.33-15.64-122.85-15.64-122.85Z" transform="translate(-449.59 -455)"/><path class="cls-21" d="M2572.79,1904.72l-6.05,162.45a446.41,446.41,0,0,1-49.11,13.95c-9.74-31.37-31.2-69.86-48.76-98.49C2533.41,1959.82,2572.79,1904.72,2572.79,1904.72Z" transform="translate(-449.59 -455)"/><path class="cls-22" d="M2790.07,2444.68a12.78,12.78,0,0,0,8.39-10.76c6-58.29,35.1-419.69-148.55-568.36,0,0-10.53-27.56-97.1,40.18s-40.22,138.73-19.49,236.65c25.08,118.5,69.08,215.36,49.61,288.28a10.11,10.11,0,0,0,6.19,12.12C2656.36,2467.57,2723.35,2468.39,2790.07,2444.68Z" transform="translate(-449.59 -455)"/><path class="cls-23" d="M2578.27,1757.27c.06,5.15,73.39,109.31,73.39,109.31s-13.16,25.92-76,47L2521.42,1802Z" transform="translate(-449.59 -455)"/><path class="cls-24" d="M2614.6,2113.69a2.34,2.34,0,0,0,1.33-.41c58.58-39.58,86.14-103.47,86.41-104.11a2.38,2.38,0,0,0-4.38-1.86c-.27.63-27.31,63.25-84.69,102a2.38,2.38,0,0,0,1.33,4.36Z" transform="translate(-449.59 -455)"/><path class="cls-25" d="M2527.34,2025.14a2.4,2.4,0,0,0,2-1.1c.17-.27,18.07-28.13,52.16-89.17,10.48-18.77,24.26-30.65,40.94-35.32,27.64-7.72,54.27,7.09,54.53,7.24a2.38,2.38,0,1,0,2.36-4.14c-1.15-.65-28.54-16-58.13-7.7-18,5-32.73,17.67-43.86,37.6-34,60.88-51.83,88.64-52,88.92a2.39,2.39,0,0,0,.71,3.29A2.36,2.36,0,0,0,2527.34,2025.14Z" transform="translate(-449.59 -455)"/><path class="cls-26" d="M2520.54,1697.59s-26.1,59.94-27.85,91.4-8.53,51.87,27.85,58.21,67-11.79,83.62-43.13c0,0,26-48.28,20.17-68.06S2520.54,1697.59,2520.54,1697.59Z" transform="translate(-449.59 -455)"/><path class="cls-27" d="M2591.73,1781.54l-2.07-.91a5,5,0,0,1-2.44-6.86c5.13-9.91,15.13-32.62,2.21-37.92-16.65-6.83-82.6-20.28-96.83-43.68-13.67-22.49-1.56-51.52,16.65-59.77a2.5,2.5,0,0,1,3.28,1.06l1.52,2.88a2.47,2.47,0,0,0,4.56-.47h0a2.46,2.46,0,0,1,4.45-.64c4.38,7,16.19,18.35,47.76,24.18,44.88,8.28,74.55,26.44,75.29,57.45a2.47,2.47,0,0,0,3.82,2c3.32-2,8.62-3,15.71,3,12.32,10.37,7.28,37.25-19.74,59.36a2.46,2.46,0,0,0,.12,4c4.89,3.19,12.2,10.78-6.72,20.89-19.57,10.46-34.19,9.6-39.81,8.67a2.46,2.46,0,0,1-2-3l6-27.25a2.48,2.48,0,0,0-2.42-3Z" transform="translate(-449.59 -455)"/><path class="cls-28" d="M2590.6,1787.29s10-38.28,27.12-27.55-8.91,42.9-22.71,44.33Z" transform="translate(-449.59 -455)"/><path class="cls-29" d="M2252.72,1892.5s13.08-23.18,12.25-34.45,6.19-27.81-1.28-26.59-9,.23-11,13.75S2227,1917.77,2252.72,1892.5Z" transform="translate(-449.59 -455)"/><path class="cls-30" d="M2250.26,1855.64l.3,46.32c88.54,95.59,160.2,101.21,218.31,80.67,17.56,28.63,39,67.12,48.76,98.49-236.43,52.12-292.1-165.23-292.1-165.23-32-13.26-38.48-21-37.11-29.71Z" transform="translate(-449.59 -455)"/><path class="cls-31" d="M2182.18,1809.68c7.55-3.07,22.34-31.26,25.17-22s-1.2,22,0,25.92,19.63,49.32,16,59.4c-2.66,7.27-17.29,6.2-19.53,18.1a7.6,7.6,0,0,1-15.12,0C2188.35,1889.54,2174.62,1812.75,2182.18,1809.68Z" transform="translate(-449.59 -455)"/><path class="cls-32" d="M1924.42,1773.71c1.73,107.53,74,197.37,172.09,226.1l.38,23.35h0l.87,54.55,24.1-.39.62,38.8-24.1.39.32,19.4,24.09-.38.36,22.38-24.09.39.5,31.34,11.41-.18.65,40.3-11.42.18.29,17.91,22.17-.36.77,48.07-22.17.36.6,37,24.09-.39.64,39.55-24.1.39.74,46a22.33,22.33,0,0,0,5.82,14.67l59.28,65a22.27,22.27,0,0,0,21.69,6.65h0c.73-.18,1.44-.4,2.15-.65.19-.06.37-.13.56-.21.55-.21,1.1-.44,1.64-.7.2-.09.4-.18.6-.29a20.32,20.32,0,0,0,2.06-1.19l39-25.65a22.3,22.3,0,0,0,10-19l-7.38-459.66c97.08-31.86,166.47-124,164.75-231.5-2.13-132.3-111.09-237.82-243.39-235.7S1922.3,1641.41,1924.42,1773.71Zm237-159.81a48.51,48.51,0,1,1-47.73,49.28A48.52,48.52,0,0,1,2161.46,1613.9Z" transform="translate(-449.59 -455)"/><path class="cls-33" d="M2080,1861.06l3.49,217.9,24.1-.38.62,38.8-24.09.39.31,19.4,24.1-.39.35,22.39-24.09.39.5,31.34,11.41-.18.65,40.29-11.41.19.28,17.91,22.17-.36.77,48.07-22.16.35.59,37,24.1-.39.63,39.55-24.1.39.74,46a22.31,22.31,0,0,0,5.82,14.66l59.28,65a22.31,22.31,0,0,0,28.73,3.61l39-25.65a22.32,22.32,0,0,0,10.05-19l-8.9-554.88Z" transform="translate(-449.59 -455)"/><path class="cls-34" d="M2145.8,1531.58C2013.51,1533.7,1908,1642.67,1910.11,1775s111.09,237.82,243.38,235.7,237.82-111.09,235.7-243.38S2278.1,1529.45,2145.8,1531.58Zm2.9,180.59a48.51,48.51,0,1,1,47.73-49.29A48.51,48.51,0,0,1,2148.7,1712.17Z" transform="translate(-449.59 -455)"/><path class="cls-35" d="M2389.19,1767.28c-2.12-132.3-111.09-237.83-243.39-235.7S1908,1642.67,1910.11,1775c1.72,107.53,74,197.37,172.08,226.1l.38,23.36c30.19-1.09,45.32,7.16,53.48,16.38,22.92,25.91,7.27,413.43,27.38,464.76a22.26,22.26,0,0,0,19.31-2.48l39-25.65a22.32,22.32,0,0,0,10.05-19l-7.38-459.65C2321.52,1966.92,2390.91,1874.8,2389.19,1767.28Zm-242.05-152.12a48.51,48.51,0,1,1-47.72,49.28A48.52,48.52,0,0,1,2147.14,1615.16Z" transform="translate(-449.59 -455)"/><path class="cls-36" d="M2146.56,1578.59c-106.33,1.71-191.15,89.29-189.44,195.62s89.29,191.14,195.62,189.44,191.14-89.29,189.44-195.62S2252.89,1576.88,2146.56,1578.59Zm2.14,133.58a48.51,48.51,0,1,1,47.73-49.29A48.51,48.51,0,0,1,2148.7,1712.17Z" transform="translate(-449.59 -455)"/><path class="cls-37" d="M2614.6,2113.69s-225.61,75.52-351.8-20.56a35.79,35.79,0,0,0-27.41-7l-48.22,7.86a38.55,38.55,0,0,1-43.87-29.85c-2.49-11.43-3.69-23.93-1.15-34.66l91-5.49-2.6-11.81s40.22,9.84,41,41.31c0,0,94.36,61.81,266.47-34.13C2538.06,2019.38,2605.08,2071.83,2614.6,2113.69Z" transform="translate(-449.59 -455)"/><path class="cls-38" d="M2816.22,1985.47c9.27-19.47,25.44-32.26,35.2-51.34,12.29-24,12.71-55.87,4.66-82.65-6.68-22.22-18.58-41.4-25.4-63.56-9.17-29.81-9.34-42.64-5.16-72.57,3.68-26.37,11.74-54.45,31.64-69.58,24.62-18.7,54.73-22.25,82.91-15.48,29.25,7,57.61,22.82,79,49.13s35.35,63.24,35,101.09c-.24,25.61-6.72,52-.26,76.26,5,18.87,18.06,33.92,33.31,38.45,17,5,34.57-2.33,52-2,17.25.29,34.36,8.42,47.52,22.6a86.61,86.61,0,0,1,22.28,49.44c2,19.27-3.31,40-15,52.58-8,8.6-19.18,14.43-22.12,27.18-3.29,14.27,6.36,28.6,17.13,34.39s22.89,6.29,33.85,11.48c24.52,11.6,39.37,46.74,37.45,79.92s-18.42,63.21-40.06,81.89-47.92,27.06-74,29.76-52.28.06-78.41-1.5c-29.89-1.79-60.37-2.29-88.72-14.49-28.66-12.33-53.43-35.91-76.52-60.78-10.93-11.77-22-24.65-26.93-41.77-3.57-12.43-3.58-26.23-7.68-38.39-8.79-26.09-33.17-37.18-47.27-59.19C2806.35,2044,2804.49,2010.09,2816.22,1985.47Z" transform="translate(-449.59 -455)"/><path class="cls-2" d="M3140.5,2032.36a.5.5,0,0,0,.17,0c12.36-2.89,23.25-14.4,27.75-29.32s2.46-32.75-5.21-45.41c-11.39-18.81-31.45-23.67-51-27l-35.46-6.11c-20-3.45-40.51-8.39-52-27.2-12.28-20.06-9.83-47.46-7.46-74,.27-3,.54-6,.78-9,3.1-37.86,0-70.77-9.26-97.82-11.28-33-32.32-57.29-56.26-65-.49-.17-1,.21-1.1.83a1.18,1.18,0,0,0,.66,1.39c23.4,7.5,44,31.28,55,63.64,9.12,26.69,12.19,59.21,9.13,96.67-.25,3-.52,6-.79,9-2.4,27-4.9,54.84,7.83,75.63,11.93,19.49,32.82,24.55,53.2,28.07l35.46,6.11c19.19,3.31,38.85,8.06,49.82,26.17,7.3,12,9.25,29,5,43.18s-14.65,25.14-26.4,27.89a1.17,1.17,0,0,0-.73,1.34A1,1,0,0,0,3140.5,2032.36Z" transform="translate(-449.59 -455)"/><path class="cls-2" d="M3129.32,2018.52a1.63,1.63,0,0,0,1.23-.62c4.33-5.16,9.25-11,12.16-18.44,2.65-6.74,4-16.74-.27-24.61-2.76-5.13-7.27-8.07-11.73-10.49a124,124,0,0,0-33.83-12.45c-7.56-1.57-15.3-2.39-22.78-3.19-9.66-1-19.65-2.08-29.21-4.76-11.44-3.21-31.95-12-40.87-34.83-7.21-18.46-4.53-39-1.7-60.82,2.3-17.67,4.68-35.94,1.42-53.3-.24-1.23-1.21-2-2.18-1.7a2.39,2.39,0,0,0-1.34,2.77c3.09,16.46.78,34.26-1.47,51.48-2.8,21.54-5.7,43.83,2,63.61,9.6,24.55,31.26,33.89,43.33,37.28,9.79,2.75,19.91,3.82,29.69,4.86,7.41.78,15.08,1.59,22.5,3.13a121.13,121.13,0,0,1,33,12.15c3.69,2,7.82,4.49,10.17,8.85,2.77,5.13,2.77,13,0,20-2.62,6.69-7.09,12-11.4,17.14a2.75,2.75,0,0,0-.08,3.25A1.62,1.62,0,0,0,3129.32,2018.52Z" transform="translate(-449.59 -455)"/><path class="cls-39" d="M2850.44,1946.79c21.11-6.7,82.68-19.44,142.3,33.83a36.4,36.4,0,0,1,11.07,36.08c-14.85,58.35-53.71,230.65-16,304.32,0,0-63.19,71.95-134.29,15.93,0,0-33.7-136.73-75.91-196.31-29.15-41.14,42.88-156.93,61.13-184.91A21.89,21.89,0,0,1,2850.44,1946.79Z" transform="translate(-449.59 -455)"/><path class="cls-40" d="M2907.15,1830.43s32.8,88.23,35.79,127.34c0,0-34.42,16.33-67.52-9.76,0,0-4.86-88.57-10.06-104.37Z" transform="translate(-449.59 -455)"/><path class="cls-41" d="M2861.62,1710.14s-80.2,116.16-30.62,148.72,106.69-50,106.69-50,18-63.16-2.23-84.16S2861.62,1710.14,2861.62,1710.14Z" transform="translate(-449.59 -455)"/><path class="cls-42" d="M2899.16,1682.09s-37.55,9.54-42.56,26.68,54,32,70.46,32.52l14.37,68.61s38.16-65.37,22-102.52S2899.16,1682.09,2899.16,1682.09Z" transform="translate(-449.59 -455)"/><path class="cls-43" d="M2921.65,1800.69s31.34-37.51,44.43-13.6-28.07,42.68-42.61,31.07Z" transform="translate(-449.59 -455)"/><path class="cls-44" d="M2776.22,2626.41c.34,6.23-9.8,55.82-15.33,82.27a43.46,43.46,0,0,0,5.18,31.07l211.75,343.67a47.22,47.22,0,0,1,5.63,13.41c4.05,16.23,12.52,56,9,92.38l-10.31,22.32,46-11.22,8-124-13.19-7.75a62.12,62.12,0,0,1-25.57-29c-19.37-45-67.52-159.5-80.36-215.49-14.59-63.62-86.32-114.34-86.32-114.34l12-29.64Z" transform="translate(-449.59 -455)"/><path class="cls-45" d="M3078.69,3156.86s-25.54-39.09-28.72-54.41-11.77-42.34-27-33.92c0,0-6,74.79-3.07,103.93s-32.53,28.77-32.53,28.77-9.75,1.53-16.8,8.81c-4.86,5-1.19,13.54,5.79,13.88a199.61,199.61,0,0,0,49.38-3.6,15.1,15.1,0,0,0,12-14.14l3.73-86,32.06,39.17Z" transform="translate(-449.59 -455)"/><path class="cls-46" d="M2900.27,2679.7s12.28,310.26,14,354.33-4.68,141.88-48.4,171.79l19.46,13.93s23.7-20.81,46.55-60.5c25.66-44.58,33.5-52.78,33.5-52.78l-9-17.78a39.5,39.5,0,0,1-3.6-25.22c8.8-46.38,38.18-200.62,46.34-233.87,9.62-39.25,9.51-91.45-26.88-134.56S2900.27,2679.7,2900.27,2679.7Z" transform="translate(-449.59 -455)"/><path class="cls-47" d="M2950,3232.7a2.71,2.71,0,0,0,2.69-2.37c1.31-10.37,6.76-51.95,11.6-62.78,5.54-12.39,23.45-64.47-1.12-68.47,0,0-59.46,89.94-71,102.13s-26.38,4.61-26.38,4.61a44,44,0,0,0-19.74,14.67,8.06,8.06,0,0,0,6.56,12.85l41-.27a28.87,28.87,0,0,0,26.76-18.62c6.93-18.15,18.91-44.8,33.17-56.76l-6.35,72a2.73,2.73,0,0,0,2.74,3Z" transform="translate(-449.59 -455)"/><path class="cls-48" d="M2843.26,2303.64s9.72,29.31-3.7,78.06l-83.13,309a9.53,9.53,0,0,0,6.14,11.49c26.5,9,113.55,34.37,231.65,24.31a13.42,13.42,0,0,0,12.07-10.65c7.23-35.19,31.88-155.26,37-179.93,19.35-94,41-195.41-62.42-254.84C2934,2302.08,2890.11,2314.71,2843.26,2303.64Z" transform="translate(-449.59 -455)"/><path class="cls-49" d="M3001.33,1992.08s101.57,81.67,128.27,195.08-144.42,128.27-144.42,128.27-23.67-25.6-51.14-15.89-2.86-45.29,29.44-45.67,17.76,25.41,63.12,4c44.2-20.88,70.71-83.69-44.4-176.4a51.39,51.39,0,0,1-15.33-20.19C2943.91,2006.06,2960.83,1969.37,3001.33,1992.08Z" transform="translate(-449.59 -455)"/><path class="cls-50" d="M2239.15,2503s57.58,155.14,145.15,136.1c0,0,9,52.79-5.71,59,0,0-131.36,3.81-144.41-176.6Z" transform="translate(-449.59 -455)"/><path class="cls-51" d="M2241.62,2539.36c-.24,2.68,9.75,4.54,12.94-6.92-.88-5-2.43-26.77-6.25-30.16-20.32-18-56.56-38.32-56.56-38.32a7.42,7.42,0,0,0,1.26,10.27l18.09,12.2c-1.89,6.26-4.64,11.78-4.95,18.92a21.19,21.19,0,0,0,5.34,14.79c3.6,4.12,8.45,9.43,12.82,13.46C2232.58,2541.23,2241.62,2539.36,2241.62,2539.36Z" transform="translate(-449.59 -455)"/><path class="cls-52" d="M2231.62,2530.54c-2.44-5.95-9.47-22.1-12.61-25.39-2.26-2.36-3.3-4.53-3.17-6.63a6.72,6.72,0,0,1,2.81-4.8l.87-.71,17.3,9.25,6.92,10.83-2.85,1.82-6.44-10.09-14.46-7.73a2.71,2.71,0,0,0-.78,1.64c-.07,1.07.71,2.49,2.24,4.09,4.15,4.34,12.36,24.19,13.29,26.44Z" transform="translate(-449.59 -455)"/><path class="cls-53" d="M2383.46,2438.17s27.8-25.11-7.95-52.34c-33.58-25.57-58.13,8.75-47,30.84a2.69,2.69,0,0,1-1.82,3.84c-2.93.64-5.47,3.56-.84,13.88a2.7,2.7,0,0,1-.31,2.71c-4.12,5.52-17.85,27.64,23.57,31a2.71,2.71,0,0,0,2-.69Z" transform="translate(-449.59 -455)"/><path class="cls-54" d="M2529.51,2475s2.67-32.05,19.82-42.49,50.44-19.33,64.39,15.51c6.66,16.62,4.45,24.53.33,28.25-3.76,3.4-4.18,8.68-1.7,13.12,2.83,5,3.2,11.28-5.31,16.94a10.77,10.77,0,0,0-4.74,6.92c-2.22,11.62-14.11,39.49-77.65,9Z" transform="translate(-449.59 -455)"/><path class="cls-55" d="M2456.05,2417.41c12.5-5.36,39-10.82,59.59,25.21a15.74,15.74,0,0,0,6.06,6c12.27,6.77,47.8,31.36,15.45,75.75a15.36,15.36,0,0,0-2.81,6.88c-1.09,7.52-4.67,24.18-15.43,28.3a15.41,15.41,0,0,0-7.7,6.43c-7.23,11.9-27.85,36.95-62.55,10.79a15.48,15.48,0,0,0-6-2.76l-47.91-10.55a15.58,15.58,0,0,0-7.7.28c-5.86,1.71-17.69,3.21-22.1-10.57a15.72,15.72,0,0,0-4.8-7.21c-8-6.83-25.09-25.35-12.19-51.31a15.61,15.61,0,0,0,1.48-9.38c-1.51-9.72-2.31-31.31,17.87-40.63a15,15,0,0,0,7.1-6.65c6.73-12.95,28.66-46.13,67.31-21.8A15.4,15.4,0,0,0,2456.05,2417.41Z" transform="translate(-449.59 -455)"/><path class="cls-56" d="M2391,3178.8l7,8.06-4.79,17.5a12.35,12.35,0,0,1-9.7,8.9c-15.57,2.85-50.88,8-69.05.18,0,0-5.65-37.86,56.94-26.58Z" transform="translate(-449.59 -455)"/><path class="cls-57" d="M2500.14,3198.91l3.71,9.11-1.5,32.82c-.21,4.61-3.93,8.48-8.95,9.25a118.81,118.81,0,0,1-26.16,1.4c-7.34-.57-11.93-7.45-9.06-13.6l11-23.67a14.42,14.42,0,0,1,8.37-7.53Z" transform="translate(-449.59 -455)"/><path class="cls-58" d="M2468.36,2559.26l7.13,70.59s-38.38,13-63.65-1.67l6.83-70.88Z" transform="translate(-449.59 -455)"/><path class="cls-59" d="M2529.91,2945.76s-18.21,203.07-30.24,265.21c0,0-9,6.55-22.47-1.9l-16.34-271Z" transform="translate(-449.59 -455)"/><path class="cls-60" d="M2449,2958l-49.9,227.42s-13.58,14.08-31.22,0l8.6-239.08Z" transform="translate(-449.59 -455)"/><path class="cls-61" d="M2512.1,2635.17l12.48,1.39c24.18,25.92,68.52,204,84.51,241.91l65.08-10.64a3.25,3.25,0,0,1,3.65,4.43c-2.89,7.06-13.73,27.43-56,27.43-19.74,0,11.07,15.31-.73,20.57,0,0-25.94-9.34-26-25.77,0,0-74.35-169.35-89.64-187.17S2512.1,2635.17,2512.1,2635.17Z" transform="translate(-449.59 -455)"/><path class="cls-62" d="M2524.58,2636.56s-66.14-24.5-148.7.86c0,0-9.26,62.51-4.49,92.26l142.27,5.15Z" transform="translate(-449.59 -455)"/><path class="cls-63" d="M2373.33,2749.22s-45.47,146-52.21,243.21a9.06,9.06,0,0,0,8.41,9.68c9.47.68,26.15,3,48.82,10.56,36.77,12.24,67.2,8.2,94.68.31,21.58-6.19,75.52-11.61,97.73-13.65a9.05,9.05,0,0,0,8.08-10.62c-6.45-36-31-163.7-68.19-250.51Z" transform="translate(-449.59 -455)"/><path class="cls-64" d="M2370.92,2726.31l2.41,22.91s43.75.17,140.41-3.08l.5-16.57S2407.16,2731.66,2370.92,2726.31Z" transform="translate(-449.59 -455)"/><path class="cls-65" d="M2371.24,2490.82c-11,42.44-7.78,91.22,42.16,102.17,34.55,7.57,70.86-27.63,81.84-70.08s-7.82-74.77-42.06-83.64S2382.22,2448.37,2371.24,2490.82Z" transform="translate(-449.59 -455)"/><path class="cls-66" d="M2375,2503.91s-1.63-25.67-14.43-17.75,4.94,38.68,12.86,40.48S2375,2503.91,2375,2503.91Z" transform="translate(-449.59 -455)"/><path class="cls-67" d="M2484.51,2533.51s3.83-19.58,17.7-10.53-12.6,41-28.91,33.93Z" transform="translate(-449.59 -455)"/><path class="cls-68" d="M2505,2518s-39.72,43-60.35-46.22c0,0-20.59,26.65-30,3.08,0,0-41,14-45.52-3.2s55.41-64,103.62-30.44S2505,2518,2505,2518Z" transform="translate(-449.59 -455)"/><path class="cls-69" d="M1153.35,3230.54a9.68,9.68,0,0,1,.25-2.44c12.17-48.22,61.9-72.94,61.9-72.94l23.92,1.88c13.75,42.5,22.62,63.25,20.41,74.86-.06.32-.16.63-.25.94C1239.85,3234.61,1199.24,3235.76,1153.35,3230.54Z" transform="translate(-449.59 -455)"/><path class="cls-4" d="M1259.58,3232.84a10.35,10.35,0,0,1-7.59,7.67c-28.07,5.9-72.68,1.15-91.41-1.3-4.13-.54-7.16-4.36-7.23-8.67C1199.24,3235.76,1239.85,3234.61,1259.58,3232.84Z" transform="translate(-449.59 -455)"/><path class="cls-70" d="M1195.8,3117.94l10.47,50.42a8.25,8.25,0,0,0,7,6.78,69.31,69.31,0,0,0,16.22-.26c5.41-.79,9.17-6.28,8.21-12.17l-7.28-44.77Z" transform="translate(-449.59 -455)"/><path class="cls-4" d="M1462.83,3232.43c-25.55-.72-38.76-3.73-45.59-6.52,0,2.54,0,5.13.08,7.8a5,5,0,0,0,4.81,5.13l140.28-.9c4.47,0,7.09-5.22,5.15-9.33C1549.17,3230.13,1502.33,3233.53,1462.83,3232.43Z" transform="translate(-449.59 -455)"/><path class="cls-71" d="M1567.56,3228.61a7.13,7.13,0,0,0-.55-1.06c-12.39-17.3-43.94-51.77-106.29-66.72l-29.91-.95s-13.32,23.15-13.57,66c6.83,2.79,20,5.8,45.59,6.52C1502.33,3233.53,1549.17,3230.13,1567.56,3228.61Z" transform="translate(-449.59 -455)"/><path class="cls-72" d="M1425.26,3114.56c.33,2.23,4.43,36.11,6,49.25a6.52,6.52,0,0,0,5.49,5.88c5.09.6,13.34,1.16,20.55-.32a8.84,8.84,0,0,0,6.7-8.88V3107.3Z" transform="translate(-449.59 -455)"/><path class="cls-73" d="M1215.78,2455.87s-47.86,425.42-21.27,691.32c0,0,31.91,0,47.86-5.32,0,0,49.74-416,65.83-535a4,4,0,0,1,7.89-.25c19.85,100.14,97.82,492.84,107.09,529.92,0,0,26.59,10.64,47.86,0,0,0-42.54-569-74.45-670.05Z" transform="translate(-449.59 -455)"/><path class="cls-74" d="M1120.06,1961.31s202.08-31.91,361.62,10.63L1471,2136.8s-42.54,228.66-74.45,329.7c0,0-122.31,21.27-180.81-10.63,0,0-47.86-287.17-74.44-329.71C1141.34,2126.16,1114.75,2014.48,1120.06,1961.31Z" transform="translate(-449.59 -455)"/><path class="cls-75" d="M1260.44,1816l-20.13,136.13s56.25,25.84,95.63-1.1l-8.48-96.08Z" transform="translate(-449.59 -455)"/><path class="cls-76" d="M1347.12,1727.35c.63,1.15,12.77,69.8,20.24,112.29a29.81,29.81,0,0,1-27.62,34.92l-16.29,1a58.09,58.09,0,0,1-60.85-49.2l-11.78-77S1331.73,1699.43,1347.12,1727.35Z" transform="translate(-449.59 -455)"/><path class="cls-77" d="M1233.25,1749.55c-6.25-7.77-11.7-20.33,1.61-33.54,13.47-13.38,28.75-10,38.44-5.56a10.71,10.71,0,0,0,12.63-2.5,6.81,6.81,0,0,1,6.36-2.36,10,10,0,0,0,11.34-8.72c1.15-9.65,6.29-21,23.36-24.32,31.3-6,46.92,25.28,46.36,47.3s-34.87,26.65-54.34,23c-14.3-2.69-26.66,9.88-32.22,16.74a10.32,10.32,0,0,0-2,8.87l4.94,21.27c-3.42,6.62-6.79,13.37-11.6,19a21,21,0,0,1-11.3,7.26c-5.84-10.87-22.16-12.71-29.75-13a10.45,10.45,0,0,1-7.52-3.56c-5.72-6.57-14.68-21.21,2.46-35.6A10.33,10.33,0,0,0,1233.25,1749.55Z" transform="translate(-449.59 -455)"/><path class="cls-78" d="M1272.43,1838.77s-.67-38.41-16.22-42-32.32,7.63-19,30.63C1253.73,1856,1272.43,1838.77,1272.43,1838.77Z" transform="translate(-449.59 -455)"/><path class="cls-79" d="M1120.06,1961.31s-313.75,340.34,55.84,470.63v-26.59s-138.26-117-31.91-276.53C1144,2128.82,1130.7,1977.26,1120.06,1961.31Z" transform="translate(-449.59 -455)"/><path class="cls-80" d="M1178.56,2408s47.86-31.91,69.13-21.28,21.27,26.59,21.27,26.59-10.63,21.27-26.59,16-53.17,5.31-69.13,0C1173.24,2429.28,1167.92,2408,1178.56,2408Z" transform="translate(-449.59 -455)"/><path class="cls-81" d="M1726.34,2081.52c-101.29,15.2-158.2-54-207.4-92.73-65-51.19-124.62-21-124.62-21l63.92,149.2c103.45,97.53,214.87,58.88,281.73,27.28A128.82,128.82,0,0,0,1726.34,2081.52Z" transform="translate(-449.59 -455)"/><path class="cls-82" d="M1868.72,2021.09l-33.59,18.07c-40.29,24.53-76.34,37.49-108.79,42.36a128.82,128.82,0,0,1,13.63,62.7c42.57-20.12,69.25-44.27,69.25-44.27C1885.32,2054.57,1868.72,2021.09,1868.72,2021.09Z" transform="translate(-449.59 -455)"/><path class="cls-83" d="M1967.68,2068.42a24.79,24.79,0,0,0-14.48-15.85L1885,2025.16s-1-8.75,14.41-14.69,11.82-23.23,11.82-23.23-21.08,9.62-52,24.88c-17.66,8.72-27.56,24.13-32.81,35.72l17.55,23.08c42,12.62,84.53,15,127.41,10Z" transform="translate(-449.59 -455)"/></g></svg>